<svg xmlns="http://www.w3.org/2000/svg" viewBox="0 0 2322.56 1514.61"><defs><linearGradient id="Безымянный_градиент_14" x1="605.51" y1="1002.91" x2="2056.35" y2="85.92" gradientUnits="userSpaceOnUse"><stop offset=".24" stop-color="#8b00ff"/><stop offset="1" stop-color="#df00ff"/></linearGradient><style>.cls-1{fill:#eac81f}.cls-3{fill:#8b00ff}</style></defs><g id="Слой_2" data-name="Слой 2"><g id="Слой_1-2" data-name="Слой 1"><path class="cls-1" d="M837.34 1125.21c8 .56 15.91 1.43 23.87 1.63 23 .55 46 .78 69 1.23 140 2.73 280 4 420 2.63 67-.63 134-2.53 200.86-6.28 38.41-2.16 76.8-5.05 114.82-11.33 12.82-2.12 25.55-4.63 37.91-8.75 5.24-1.74 10.35-3.75 14.86-7 6-4.22 6.4-9.69 1.45-15.27a37 37 0 0 0-10.82-7.92 132.18 132.18 0 0 0-23.68-9.26c-23-7-46.58-11.28-70.29-14.89-61.81-9.41-124-14.65-186.39-18.67-41.91-2.71-83.83-5-125.81-6.17a164.11 164.11 0 0 1-20.93-1.41c-12.56-1.95-20.22-11.73-19.76-24.23.46-12.34 9-21.21 21.78-22.5a35.34 35.34 0 0 1 4.49-.14c26 .74 52 1.16 77.95 2.36q40.44 1.88 80.82 5c42.34 3.3 84.6 7.48 126.63 13.82 32.13 4.84 64 10.59 95.48 18.89 20.3 5.37 40.24 11.81 59.18 21a128.49 128.49 0 0 1 24.2 14.89 58.84 58.84 0 0 1 13.27 14.18c6.19 9.76 8.49 20.08 4.77 31.44-4.85 14.84-13.31 26.74-27.17 34.38-10.56 5.82-21.85 9.82-33.39 13.12-25 7.18-50.64 11.55-76.41 14.84-59.55 7.62-119.42 10.84-179.39 13-106.47 3.86-213 2.85-319.43 1.11-70-1.15-139.94-3.41-209.89-5.8-67-2.28-133.87-5.37-200.8-8.09-42.45-1.73-84.89-3.64-127.35-5.07-52-1.75-104-1.2-156 .35-39 1.16-77.93 2.79-116.89 4.5-59.94 2.63-119.72 7.28-179.15 15.7-23.23 3.29-46.35 7.47-68.88 14.3a146.66 146.66 0 0 0-23.73 9.14 43.88 43.88 0 0 0-12.23 8.55c-7.22 7.55-6.49 17.28 2.11 23.07 6.22 4.19 13 7.55 20.7 8 6-2 11.87-.21 17.68 1 73.36 15.41 147.89 21.14 222.41 27.09 45.16 3.61 90.31 7.39 135.6 9 4.95.17 10.09.25 13.61 4.73 3.18 1.86 6.76 1.69 10.22 1.78 33 .81 65.81 4.16 98.83 4.31 20 .1 39.9 2.27 59.86 3.32 29.44 1.56 58.88 3.17 88.34 4.37 62.42 2.54 124.85 4.73 187.27 7.25q110.1 4.44 220.18 9.29c28.45 1.29 56.94 2.71 85.26 5.51 65.23 6.45 129.59 17.67 191.9 38.73a193.1 193.1 0 0 1 39.44 18c6.42 4 12.45 8.4 17.26 14.25 12.47 15.16 7.93 34.37-10.17 41.84-10.2 4.21-21.11 5.85-32.08 7-41.39 4.49-82.86 3.29-124.31 1.56-24.46-1-48.9-2.59-73.32-4.39-34.87-2.57-69.72-5.51-104.56-8.45-26.39-2.22-52.75-4.66-79.12-7.07-22.89-2.09-45.82-3.8-68.62-6.55-20.4-2.45-40.89-3-61.33-4-56.42-2.75-112.91-4.43-169.34-.7-48 3.17-95.38 10-140.87 26.51-12.63 4.58-24.93 10.09-37.38 15.18l-3.54 2.13a2.19 2.19 0 0 1-2.28 1c-1.5.32-2.51 1.46-3.72 2.26a1.64 1.64 0 0 1-1.91.92c-1.81.08-3 1.28-4.07 2.49-3.5 2.06-6 2.11-6-2.95a8.81 8.81 0 0 1 3-2.23 2 2 0 0 1 2.14-1.19c1.65-.31 2.74-1.45 3.85-2.57 1.57-1.76 4.52-1.18 5.81-3.41 13.07-9.47 28-15.17 42.92-20.76 33.4-12.5 68.16-19.21 103.4-23.87 49.68-6.56 99.69-7.21 149.66-7.76 24-.26 48 1.6 71.91 2.87 27.45 1.45 54.88 3.3 82.31 5q63.6 3.93 127.21 7.84c19.46 1.18 38.91 2.44 58.39 3.21q80.16 3.18 160.35 5.93a649.23 649.23 0 0 0 71.93-1.92 66.38 66.38 0 0 0 17.61-3.36c6.12-2.23 8.27-9.27 4.67-14.81-2.8-4.32-7-7-11.41-9.48-9.23-5.15-19.16-8.51-29.23-11.45-28.34-8.27-57.34-13.42-86.44-18.08-46.4-7.42-93.08-12.63-139.83-17.06-41.78-4-83.67-6.85-125.53-10-81.83-6.14-163.85-5.21-245.82-6.35q-96-1.32-191.93-3.4c-21-.42-42-1.94-62.94-2.27-54-.85-107.91-3.54-161.8-6.51-46.89-2.58-93.76-5.87-140.52-10.6-40.28-4.06-80.45-8.77-120.29-15.94-24.1-4.34-48-9.66-71.08-17.94-9.43-3.38-18.61-7.33-26.95-12.94-23-15.43-26.38-44.48-7.65-64.84 7.55-8.2 16.78-14.15 26.55-19.29 20-10.53 41.47-17.24 63.29-22.74 34.43-8.69 69.43-14.27 104.68-18.47 93-11.1 186.33-14.16 279.9-12.22 31.48.65 63 1.12 94.47 1.59a80.31 80.31 0 0 0 8.85-.78c22.27 1.78 44.45 2.48 66.75-.76a168.17 168.17 0 0 1 43.23-.28c39.22 4.56 78.52.91 117.74 2.37 7 .41 14.04-.5 19.8 4.71Z"/><path d="M2320.56 5.16q-35 26.64-70 53.26a11.7 11.7 0 0 1-2.72 1.08c-4.45 0-7.57 1.87-8.77 6.31a4.36 4.36 0 0 0-3.28 2.69c-4.42.06-7.52 1.91-8.74 6.33a9.71 9.71 0 0 0-3.28 2.62c-2.68.15-5 .73-5.43 4a468.41 468.41 0 0 1-51.62 38c-2.59.11-4.87.66-5.4 3.6h-.33a1.3 1.3 0 0 0-.33.07h-.17a3.71 3.71 0 0 0-2.51 2.44c-4.57-.17-7.71 1.61-8.75 6.26a4 4 0 0 0-3.32 2.58v.07a84.87 84.87 0 0 1-6.53 5.8q-29.65 21.48-59.44 42.8c-2.79 2-5.88 3.58-8.83 5.35-4.55-.12-7.73 1.7-9 6.19l-.06.17v.05h.09a30.62 30.62 0 0 1-4 4q-46 32.74-92.13 65.36a41.75 41.75 0 0 1-5.2 2.67c-.26.42-.42 1-.79 1.25q-41.22 29.07-82.5 58.07a4 4 0 0 1-1.43.35c-3.63 5-9.15 7.67-14 10.95-15.35 10.24-29.53 22.19-45.8 31.05-4 5.17-9.82 8-15 11.56-15 10.11-29 21.78-44.94 30.45a60.38 60.38 0 0 1-5.47 4.94q-87.77 61.58-175.62 123a80.06 80.06 0 0 1-7.76 4.31v-.08h-.24a.18.18 0 0 0-.12 0 1.8 1.8 0 0 0-.27.07 4.11 4.11 0 0 0-2.93 2.53c-2.82.11-5.15.86-5.68 4.13-37.39 29.79-76.16 57.59-117.55 81.61a39.71 39.71 0 0 1-5.49 2.18 83.82 83.82 0 0 1-7.22 5q-37 20.47-75.89 37.22a56.74 56.74 0 0 1-7 2h-.19c-2.5-.12-4.71.38-6.09 2.79-3.3.13-6.95-.57-8.66 3.39-2.58-.31-4.88.07-6.19 2.73-3.36 0-7-.77-8.72 3.38-2.63-.41-4.92 0-6.25 2.67-3.48 0-7.23-.79-8.87 3.67-13 7.28-27.47 11.08-41.13 16.81-8.22 3.44-16.63 6.43-25 9.63-4.46-.54-7.86 2.41-11.8 3.58l-8.85 2.52-5.41 2-1.14.41a3 3 0 0 0-.42.79 3 3 0 0 1-.45.13 3.8 3.8 0 0 0 .4.06 1.46 1.46 0 0 0 1.32 2 71.89 71.89 0 0 0 8.19.32l1.07-.82 2.19-1.66c3.52-.54 7.19-.57 10.2-2.89 4.88-.28 10 .4 14.08-3.22 28.15-4.82 55.15-13.69 81.89-23.45l28-10.23c2.69.2 5.13-.14 6.51-2.87 2.51.1 4.73-.44 6.08-2.85h.06c5.9.09 11.23-1 14.34-6.71 4.7 1.06 7.65-1.17 9.62-5.24h.08c2.48 0 4.65-.65 5.83-3.11 2.54 0 4.76-.56 5.87-3.16a.14.14 0 0 0 0-.06.2.2 0 0 0 0-.08l26.77-17.98 3.19 3.5c-6.31 10.45-11.47 21.71-20.56 30.28v-.08h-.09a.08.08 0 0 0-.08 0 3.63 3.63 0 0 0-2.53 2.6l-.06.32a1.6 1.6 0 0 0 0 .39c-4.78.77-6.47 4-6.53 8.51a4.29 4.29 0 0 0-2.82 3.17 3.8 3.8 0 0 0-2.79 3.12 3.59 3.59 0 0 0-2.15 1.36 3.8 3.8 0 0 0-.32.52 3.2 3.2 0 0 0-.33 1.25.88.88 0 0 0 0 .16c-7.87 3.31-13.64 8.56-15.67 17.24-2.21 2.65-4.22 5.49-6.65 7.91-33 32.76-69 62-106.09 90a21.15 21.15 0 0 1-4 1.88 48.56 48.56 0 0 1-5.25 5q-34.39 24.36-68.93 48.53a49.67 49.67 0 0 1-6.43 3.26s0-.08 0-.12h-.14a.25.25 0 0 0-.12 0 4.24 4.24 0 0 0-3.36 2.55c-5.21 1.17-9.1-2.9-13.82-3.78-2 4.47-.92 8.85-.82 13.15-1.45.36-2.22 1.7-3.38 2.48a255.86 255.86 0 0 1-75.11 41.3 31.19 31.19 0 0 1-5.76.93h-.07c-3.33 0-6.85-.6-9 3-4.12.44-9-1.61-11.77 3.31-3.43-.3-6.93-.91-9.25 2.68-6.44 3.92-14.21 3.42-21 6.28-3.57-.63-7-.41-9.79 2.19l-5.18.77-5.88.37-1.35-.34-1.85-.46a2.14 2.14 0 0 1-2.46.37c-5.28.35-11-2-15.6 2.56l.3.53-12.06-.21c-4.19.28-8.81-1.38-12.21 2.62-1.33.38-3.18.24-3.25 2.07 0 .36 2.26 1 3.53 1.19a12.16 12.16 0 0 0 2.93-.16c7.4-.28 15 1.78 22.07-2.18 5.93-.15 11.88-.11 17.8-.51s12 .38 17.4-2.72l8.51-.71c5.43.82 10.74.75 15.61-2.28q17-2.29 34-4.6c5.42-.74 10.83-1.53 16.25-2.3 1.53 1 3.42 1.59 3.71 3.78-40.47 34.59-85.26 62.48-132.95 85.88-3.52 1.73-6.78 4.34-11 4.31h-.22c-2.61-.28-4.92.12-6.07 2.9-2.58-.21-4.87.2-6.1 2.88-2.53-.11-4.77.39-6.11 2.85-3.32.15-7.07-.69-8.55 3.58-2.68-.46-5-.14-6.2 2.75-2.58-.27-4.88.12-6.18 2.78-3.49 0-7.33-.75-8.78 3.91l-27.64 13c-7.29-3.73-13.6.42-19.94 2.81-28.46 10.7-56.86 21.55-85.62 31.44-6.54 2.24-15.92 5.34-19.66-.17-4.11-6.06 5.13-10.42 9.2-14.86q39.88-43.55 81.52-85.39c.37-.42.73-.85 1.11-1.27q5.22-6 10.59-12a941 941 0 0 1 79.69-77.93c.92-.92 1.82-1.83 2.66-2.83.41-.48.83-.91 1.24-1.38.8-.87 1.59-1.72 2.35-2.64.37-.43.76-.82 1.14-1.25.76-.79 1.51-1.56 2.23-2.39.36-.39.73-.75 1.09-1.14.73-.73 1.46-1.45 2.15-2.22.35-.37.72-.71 1.07-1.07.73-.69 1.45-1.39 2.11-2.13 0 0 1.06-1 1.06-1.06.72-.68 1.45-1.37 2.13-2.1.35-.36.73-.7 1.08-1 .74-.7 1.5-1.4 2.2-2.13.37-.37.77-.72 1.14-1.08.8-.72 1.61-1.44 2.37-2.19.4-.37.85-.73 1.25-1.11.88-.74 1.78-1.5 2.61-2.29l.08-.07c.7-.6 1.4-1.23 2.07-1.88l.57-.58c12.42-13.74 27.69-24.41 40.78-37.46 1-.94 2-1.88 3-2.89l.31-.3c.89-.86 1.77-1.74 2.59-2.67l.91-.86c20.06-19 41.29-36.79 61.45-55.75a48.83 48.83 0 0 1 4.24-4 6.43 6.43 0 0 0 2.41-1.79l.19-.12a33.13 33.13 0 0 0 2.85-2 27.11 27.11 0 0 0 2.54-2.24c.4-.4.81-.77 1.2-1.17.79-.76 1.59-1.52 2.34-2.33.39-.39.81-.75 1.19-1.14.82-.75 1.66-1.49 2.44-2.27.41-.38.87-.75 1.28-1.13l1-.83c.39-.32.77-.65 1.14-1l.53-.48c1-.77 1.92-1.56 2.82-2.41 26.89-21.44 52.08-45 79.72-65.57.47-.42.94-.84 1.41-1.24.62-.56 1.24-1.11 1.87-1.64 23.66-20.71 49.26-39 73.76-58.63a59.12 59.12 0 0 1 4.63-4.19 6.8 6.8 0 0 0 2-1.44l.49-.33a35.21 35.21 0 0 0 2.94-2.06 34.14 34.14 0 0 0 2.71-2.23c.88-.73 1.77-1.44 2.62-2.22.16-.13.33-.25.5-.37a6.84 6.84 0 0 0 2.92-2l.72-.48a28.94 28.94 0 0 0 2.84-1.93c.92-.69 1.83-1.4 2.68-2.18s1.84-1.43 2.72-2.2c.15-.11.3-.22.46-.32a6.71 6.71 0 0 0 2-1.31c1-.64 2.08-1.25 3.1-1.88l.59-.36.87-.58c.77-.54 1.53-1.11 2.24-1.72 27.36-20.72 55.31-40.69 83.52-60.25l4.23-2.94c.57-.38 1.12-.77 1.7-1.15 40.46-27.48 80.93-54.93 122.59-80.58 1.31-.82 2.64-1.63 4-2.44l.6-.38q91.72-58.2 186-112.2l1.41-.81 1.1-.66c19.14-11.48 38.3-22.88 57.9-33.61a35.55 35.55 0 0 0 3.27-2c.41-.29.82-.58 1.21-.88s.92-.73 1.37-1.12l.22-.19c.86-.7 1.72-1.37 2.55-2.11a31.56 31.56 0 0 1 4.11-2.25c1-.42 1.9-.85 2.82-1.36 1.49-.68 3-1.3 4.5-2 1.06-.48 2.14-1 3.14-1.56s2.19-1.15 3.24-1.82c14.5-8.86 30.09-15.95 43.76-26.27a43.8 43.8 0 0 1 3.88-4.28l.4-.36 1.41-.28c.09-.29.16-.58.22-.87.6-.38 1.19-.75 1.77-1.14 1.46-.78 2.93-1.48 4.37-2.25a23.55 23.55 0 0 0 2.77-1.76c.43-.3.85-.6 1.3-.89a14.15 14.15 0 0 0 3.26-2.12c.76-.45 1.51-.9 2.25-1.4.52-.31 1.07-.6 1.6-.89a6.47 6.47 0 0 0 2.62-1.34c1-.43 1.93-.89 2.85-1.41s1.89-.91 2.82-1.42 1.86-.9 2.78-1.43 1.82-.93 2.72-1.46a20.13 20.13 0 0 0 2.59-1.58 25.93 25.93 0 0 0 2.34-1.84c.68-.5 1.4-1 2.1-1.43a6.42 6.42 0 0 0 3.15-1.71 16.58 16.58 0 0 0 2-1.16c.28-.16.57-.3.84-.45a6.51 6.51 0 0 0 2-.95h.06c.29-.12.56-.24.85-.38a16.29 16.29 0 0 0 2.59-1.26c.87-.41 1.74-.85 2.58-1.35a12.31 12.31 0 0 0 2.49-1.52c.78-.57 1.56-1.15 2.28-1.79.64-.45 1.29-.87 1.94-1.3a6.54 6.54 0 0 0 3.29-1.79 19.08 19.08 0 0 0 2.12-1.18l.73-.38a6.52 6.52 0 0 0 2.08-1c.35-.16.72-.31 1.07-.48A19 19 0 0 0 1908 225c1.37-.68 2.8-1.31 4.16-2a22.06 22.06 0 0 0 2.67-1.72c1.3-.91 2.65-1.79 4-2.66.92-.54 1.84-1.08 2.72-1.68.68-.4 1.37-.77 2.05-1.14l1.17-.2 1.82-.32c.09-.37.18-.73.25-1.1.58-.28 1.15-.58 1.72-.91.93-.46 1.88-.92 2.78-1.42a27.08 27.08 0 0 0 2.77-1.47c1.39-.75 2.81-1.41 4.19-2.14a11.68 11.68 0 0 0 2.53-1.89 8.57 8.57 0 0 0 .61-.77 3.35 3.35 0 0 0 .9-1.37c5.49-1.13 9.85-4.41 14.31-7.5 1.65.25 2.59-.61 3.17-2a202.87 202.87 0 0 0 36.58-20.78c3.25-.09 5.42-2.41 8-3.84a17.5 17.5 0 0 0 9.32-5.46l5.85-3.21a.59.59 0 0 0 .43-.2c1.89-.87 3.77-1.76 5.66-2.64l7.52-2.75 1.28-.47v.14c.17-.14.33-.29.51-.43l2.73-2.3-.17-.27a.63.63 0 0 0 .45-.23c2.84-1.52 5.72-3 8.48-4.63.58-.36.68-1.54 1-2.35-.84-.25-1.92-1-2.5-.68-2.57 1.24-5.64 1.82-7.21 4.63l-6 .72-1 .83-5.19 4.26c-2.39.4-4.69 1-5.89 3.42l-4.87.46c-1.45.22-2.48 1.25-3.68 2l-.56.29.38 1-2.46-.29a10.82 10.82 0 0 0-2.67 1.5l-.07.05-.93.51-3.5 3.41-4.38.64c-1.76.18-2.9 1.52-4.37 2.26l.44 1.18a19.06 19.06 0 0 1-2.23-.43c-3-.23-5.74 0-6.86 3.5-4.68 2.57-9.39 5.08-14 7.73-5.43 3.12-11.82 4.53-16.4 9.15a6.66 6.66 0 0 0-6.19 3.06 23.67 23.67 0 0 0-9.93 4.44 9.39 9.39 0 0 0-2.73.79c-1.39.66-2.77 1.3-4.14 2a17.25 17.25 0 0 0-2.68 1.35c-1.33.69-2.71 1.28-4 1.92a23.71 23.71 0 0 0-2.71 1.37c-.39.21-.78.41-1.19.61l-1.44.13-1.27 1-.35.27a.44.44 0 0 0 .1.15l-.81.4c-2.28-.92-3.91-.57-4.38 2.14l-.54.27-.62.3a3.85 3.85 0 0 0-1.21-.42c-2.12.35-4.15.77-4 3l-.78.39a4 4 0 0 0-1.17-.41c-2.12.34-4.14.76-4 3l-.8.39a4.07 4.07 0 0 0-1.16-.4c-2.11.34-4.14.76-4 3l-.81.4a4.18 4.18 0 0 0-1.16-.4c-2.11.34-4.14.76-4 3l-.81.4a4.07 4.07 0 0 0-1.16-.4c-2.11.34-4.14.76-4 3l-.81.4a3.85 3.85 0 0 0-1.17-.4c-2.09.36-4.14.77-4 3l-.87.43a3.68 3.68 0 0 0-5.33 2.63l-1.23.6c-2-.74-3.55-.4-4 2l-1 .48-.47.23a3.89 3.89 0 0 0-1-.33c-2.08.39-4.2.75-4 3-.26.14-.51.29-.76.45a4.69 4.69 0 0 0-1.56-.63c-4.19.76-9.12.62-9.35 6.13l-1 .55a4.55 4.55 0 0 0-1.62-.64c-3.75.11-6.71 1.44-8 5.26h-.44a1.29 1.29 0 0 1 0 .39c-.37.18-.72.37-1.08.58a34 34 0 0 0-3 2c-1 .6-2.06 1.11-3.1 1.63-2.34.75-4.81 1-7.21 1.56-21.46 8.73-41.53 20.4-62.4 30.38l-1 .68c-1.17.81-2.36 1.58-3.55 2.32-9 5.63-18.84 9.85-28.25 14.8-13.09 6.89-26.8 12.71-37.69 23.12 0 .05-.12.1-.16.15a54.42 54.42 0 0 1-6 4.25c-52.14 27.46-102.72 57.6-152.67 88.81a45.66 45.66 0 0 1-6.09 2.85v-.46l-.56.73c-6.13-.78-10.23 3.38-14.83 6.2-22.4 13.77-44.31 28.33-66.66 42.18l-.44.28-.6.4c-27.12 18.47-54.49 36.54-81.42 55.27l-1.81 1.26-.61.43c-36.46 25.78-72.3 52.38-108.16 79l-.67.5-1.07.72a28 28 0 0 0-2.3 1.76 38 38 0 0 0-3.15 2.8c-21.87 17.28-43.54 34.81-65.62 51.84-1 .63-1.88 1.28-2.78 2-.2.15-.4.31-.59.48l-.88.72c-.77.66-1.53 1.33-2.24 2.05q-38.18 31.49-75.82 63.58l-4.78 4.05-7.75 6.56c-30.33 26.58-59.63 54.33-90.34 80.51l-.26.22-.58.6c-22.63 23.87-48.53 44.32-71.3 68-.73.75-1.44 1.5-2.15 2.26l-1.17 1.24c-33.84 33.22-67.11 66.81-100.77 99.96-.5.5-1 1-1.49 1.47l-.42.42c-21.81 23.32-43.45 46.77-65.33 70q-3 3.22-6.07 6.43t-6.06 6.41a190 190 0 0 0-13.66 13.86c-5.67 6.7-11.7 11.89-21.35 11.8-22.47-.19-45-.12-67.42 0-9.16 0-13.64-4.05-14.76-13.15-.74-6 1.3-13.56-6.93-16.57-.41-8.9-.4-17.85-1.31-26.7-2.86-27.73-2.84-55.51-1.69-83.28.78-18.82 2.86-37.58 8.11-55.82 1.37-4.74 2.34-9.59 5.48-13.6.76-5.73 4.14-10.13 7.6-14.37q26.52-32.53 53.21-64.92a11.69 11.69 0 0 1 2.38-1.72 4.51 4.51 0 0 0 2-1 .28.28 0 0 0 .09-.07 2.72 2.72 0 0 0 1.11-2.12l.07.27-.06-.66v-.12h-.14c1.42-4.45 5-7.38 7.81-10.82q36.88-45.24 73.9-90.38l3.28 3.25c-5.44 21.54-11 43.06-16.27 64.64-2.93 12-5.88 24-5.25 36.52-2.22 3.51-2 7.53-2.23 11.41-.43 8.32-.68 16.66-1 25-2.11 3-1.94 6.5-2 9.91-.23 8-.41 16-.62 24.08-.06.2-.12.4-.19.6-.18.56-.37 1.12-.58 1.68l.71.1q.48 2.79 1 5.58l.17-.45c2.49-6.59 5.38-13.09 4.82-20.41 0-1.93.08-3.85.13-5.77 1.22-7 4.1-13.7 3.11-21q4.57-20.68 9.13-41.39c.52-2.38.75-4.83 2.64-6.65 4.87-3 3-7.81 3.15-12.06 4.69-3 2.82-7.74 3.12-11.91 3.84-2.47 3-6.27 2.75-9.88a1.37 1.37 0 0 1 .49-2.1c3.4-2.29 2.8-5.75 2.7-9.06 3.94-2.46 3-6.31 2.79-10a1.24 1.24 0 0 1 .47-2c3.44-2.29 2.85-5.75 2.71-9.09 4-2.49 3-6.41 2.79-10.09l-.32-1 .74-.77c2.73-20.69 9.51-39.49 24.18-55 12.29-13 23.5-27.11 37.56-38.42 2.71-4.94 7.26-8.19 11.29-11.84q23.28-21.13 46.91-41.9c3.7-3.26 7.92-5.92 11.91-8.85 3.67-5.56 9.47-8.76 14.49-12.78 24.59-19.7 49.83-38.52 77.07-54.46 6-3.49 11.7-7.58 18.72-9.07 2.53 4.73.89 9.18.23 13.41-7.45 47.88-15.09 95.72-22.6 143.58-.62 3.94-.71 8-1 11.93a21.28 21.28 0 0 0-2.85 10c-.2 2.54-.23 5.1-.5 7.63a12.76 12.76 0 0 1-2.11 1.38q-.42 5.65-.83 11.3c-3 3.06-2.58 6.88-2.27 10.62 0 .61 1.14 1.71 1.45 1.61a3.62 3.62 0 0 0 2-1.63c.81-1.66 1.34-3.45 2-5.18q1.47-5.79 2.93-11.59c.76-4 3.82-7.49 3.08-11.91 3.95-7.61 4.16-16.6 8.86-23.94 4.48-2.36 3.33-6.44 3.12-10.23l-.32-.95.73-.68c.2-8 3.64-15.29 5.76-22.85q10.41-37 21.14-74a85.6 85.6 0 0 1 3.28-8.18c3.39-2.23 2.77-5.7 2.8-9a254.91 254.91 0 0 1 23-62.84 37.36 37.36 0 0 1 12.7-14.46c7.91-5.14 14.54-12.12 23.22-16.16 3-2.59 5.75-5.39 8.89-7.73q27.48-20.46 55.11-40.69c4-2.9 8.27-5.33 12.42-8 2.46-.18 4.58-.87 5.36-3.5a.84.84 0 0 0 0-.17.43.43 0 0 0 0-.05h-.1a19.85 19.85 0 0 1 2.93-3.13c25.55-18.19 51.46-35.86 78.59-51.65 3.24-1.89 6.16-5 10.27-4.47 2 1.48.86 2.92.19 4a594.67 594.67 0 0 0-50.65 107.91 9.21 9.21 0 0 1-1.8 2.31l-6.54 25.83c-2.22 1.77-2.7 4.11-2.23 6.76a2.56 2.56 0 0 0-.58 2.62c-2.68 2.61-3.16 5.87-2.77 9.39a1.57 1.57 0 0 0-.49 2.05c-4.74 10.6-7.3 21.79-9 33.21-3.48 5.81-3.84 12.44-5 18.86-.48 2.88-1 5.77-1.45 8.66-3.21 3.51-2.18 8-2.8 12.13a4.37 4.37 0 0 0-.72-.06 6 6 0 0 0-1.58.16q-.25 6-.52 12c-3.79 3.32-2.18 7.89-2.75 12-4.07 3.73-2.83 7.84-1.3 14.19 2-6.15 4.56-9.74 4.52-14.23.22-1 .43-2 .64-3.07l2.28-3.3c0-1.9 0-3.8-.07-5.7l.6.3c.14-.79.29-1.58.43-2.37.61-3.31 1.21-6.63 1.82-9.95l3-11.91.93-5c3.22-4.87 4.39-10.41 5.25-16.05 3.58-9.75 7.65-19.35 9.41-29.68a6.08 6.08 0 0 0 2.4-6.21 2.21 2.21 0 0 0 .68-2.4c2.31-1.64 2.86-4 2.54-6.61a1.62 1.62 0 0 0 .64-2c2.38-1.74 2.87-4.2 2.68-6.93 5.76-13.47 11.39-27 17.33-40.39 3-6.66 4.92-13.83 9.63-19.64.35-5.16 3.45-9.23 5.56-13.66a473 473 0 0 1 33.58-59.68c3.28-4.9 6-10.33 10.93-13.95 4.68-1 6.67-4.11 6.87-8.66v-.05c7.29-11.51 17.44-20.11 28.87-27.12 14.3-8.79 28.94-17.07 43.5-25.45 3.38-1.94 6.47-4.64 10.66-4.87 5.6-5.09 12.6-7.78 19.22-11.05 49.48-24.5 100.8-44.58 152.73-63.16a35 35 0 0 1 5.83-1.06c15.59-7.62 32.4-11.9 48.75-17.4 7.45-2.51 14.66-6.09 22.74-6.46l.12.08c3.53.35 7.2 1.18 9.29-2.88 3.41.25 7 .94 9.07-2.9 3.41.17 7 .79 9.11-2.95a108.06 108.06 0 0 1 29.88-9h.08c.92 0 1.85.1 2.77.11h.14c2.36 0 4.6-.4 6.22-2.88a1.12 1.12 0 0 1 1.84-.46c3.68.2 7.59 1.24 10-2.83 3.37.18 6.88.76 9.16-2.78 12.67-5.87 26.4-8.43 39.77-11.9 32.64-8.48 65.43-16.32 98.16-24.42 1.85 1 4.42.44 5.53 2.8l.44.23a3.65 3.65 0 0 0-3.62 2.41 6.84 6.84 0 0 0-5.35 3.77 3.56 3.56 0 0 0-3.51 2.41 6.51 6.51 0 0 0-5.26 3.76h-.09a3.38 3.38 0 0 0-3.44 2.47 14.31 14.31 0 0 0-8.73 6.25 3.58 3.58 0 0 0-3.49 2.51 14.43 14.43 0 0 0-8.65 6.3 3.71 3.71 0 0 0-3.52 2.65c-8.69 4.25-15.87 10.61-23.19 16.78a2.42 2.42 0 0 0-2.62 2.1l-.25.17a3.39 3.39 0 0 0-3.23 2.6c-8.86 4.84-16.42 11.42-23.86 18.14l-13.92 9.25a4.58 4.58 0 0 0-4 2.87 14.08 14.08 0 0 0-2.33 2l-.67.58-.15.13q-4.46 4.51-8.92 9c-4.72 2.88-9.12 6.12-12.23 10.81-1.62.95-3.21 1.89-3 4.11l-2.7.43-15.66 11.49c-4.11.39-7.07 2.25-8.23 6.35a4.35 4.35 0 0 0-3.13 3.05.25.25 0 0 1-.12 0v.26l-12.21 13.74c-1.63.74-2.91 1.73-3 3.66a2.82 2.82 0 0 0-3 3 2.78 2.78 0 0 0-3 3.07l-2.86.85-2.94 2.36c-5.63 2.56-9.09 7.64-13.51 11.6-6.41 5.72-12.64 11.62-18.93 17.45l-.78.73c-.24 1-.47 2-.7 2.94-5 3-8.59 7.39-12.06 11.92-6.46 5.32-12.71 10.85-17.07 18.15a3.85 3.85 0 0 0-1 .48c-.16.15-.13.53-.19.81.4-.43.8-.85 1.19-1.29h.49a.9.9 0 0 0 0 .28.89.89 0 0 1 .07-.28 8.49 8.49 0 0 0 6-2.4c5-5.05 10.84-9.32 14.59-15.54 3.89-3.16 7.81-6.33 11.72-9.49v-.22c0-.78.11-1.56.15-2.35a243.35 243.35 0 0 0 30.17-29.19.27.27 0 0 0 .19-.1 4.46 4.46 0 0 0 2.66-3.13l.22-.17.81-.48a2.93 2.93 0 0 0 1.36-.83l.82-.54c.48-.35 1-.66 1.44-1a31.14 31.14 0 0 0 2.65-2.22c.41-.4.86-.77 1.28-1.17.87-.76 1.77-1.54 2.59-2.36.43-.41.89-.8 1.31-1.21s.91-.82 1.36-1.25l7.09-4.54c.2-.21.38-.41.55-.62q4.35-4.94 8.67-9.87c1.55-1 3.12-2 3-4.2l2.7-.61c6.09-3.12 11-7.73 15.28-13a10.74 10.74 0 0 0 2.4-1.94c.44-.3.89-.61 1.33-.93s1.06-.77 1.58-1.17.93-.75 1.38-1.15c5.55-2.71 9.74-7.18 14.22-11.26l14.68-9.7c0-.29.08-.58.14-.86a8 8 0 0 1 .32-1.26c5.57-3.43 11.15-6.82 15.49-11.83 8.27-5.21 16.65-10.29 24.05-16.71a8.65 8.65 0 0 0 2.9-.65 27.86 27.86 0 0 0 3-1.82c1-.57 2-1.08 3.05-1.62 1.68-.62 3.4-1.14 5.07-1.78 7.25-4 15.84-6.3 19-15.36l-.32-.59.2-.17c3.19 1 5.56.71 5.62-3.42.22.26.45.51.68.77 1.32.33 2.61.6 3.53 0a2.93 2.93 0 0 0 1.17-2c1.29-1.45 2.59-2.89 3.9-4.34 2.42-.27 4.58-1 5.81-3.35a6.48 6.48 0 0 0 5.79-3.3 15.16 15.16 0 0 0 9.45-5.22c2.41-.3 4.62-.93 5.94-3.21 2.41-.21 4.62-.85 5.89-3.16 2.56-.15 4.84-.86 6.24-3.27 8.15-3.69 16.25-7.49 24.46-11 15.52-6.69 30.36-15.06 46.93-19.22 3.37-.07 7 .57 8.88-3.4 12.2-6.93 25.72-10.45 39-14.5 20.45-6.27 41.16-11.71 61.8-17.37 2.34-.64 4.91-.44 7.37-.63a1.4 1.4 0 0 1 2.15-.41c4.49 0 9.4 1.83 12.88-2.79 13.64-5.13 28.13-6.32 42.35-8.59 9.77-1.56 19.51-4.48 29.64-3.28a1.59 1.59 0 0 1 2.38-.24c6.16.05 12.31.12 18.46.14a7.45 7.45 0 0 0 6.16-2.88 5.16 5.16 0 0 1 5-.36l29.27.29c3 0 5.84-.37 7.8-3.05 9.27-2.1 18.73-2.21 28.15-2.3 17.38-.18 34.77 0 52 0 1.12 2.48.11 3.95-1.59 5.24Z" style="fill:url(#Безымянный_градиент_14)"/><path class="cls-3" d="M383.53 1514.61c-.45-4.77 2.33-7.12 4.22-9.76q62-86.46 128.28-169.68c1.24-1.57 2.48-3.13 3.71-4.71a9.81 9.81 0 0 1 9.1-3.9c13.93.91 27.87 1.64 41.52 2.42 1.67 3.36-.44 5.1-1.91 7q-60.29 76.5-117.05 155.64c-3.67 5.15-7.79 8.28-14.19 9.7-17.94 3.96-35.69 8.76-53.68 13.29ZM586.89 1281.35c-7-.32-14-.6-21-1-1.95-.1-3-2.74-1.81-4.45 1.45-2 3-4 4.61-5.89 27.11-32 54.37-64 81.25-96.22 5-6 10-8.63 17.94-7.81 10.91 1.14 22 1 32.94 1.49 1.4.06 3.33 0 3.48 1.88a6.25 6.25 0 0 1-1.19 3.93c-2.44 3.16-5.16 6.1-7.73 9.16q-37.2 44.11-74.41 88.24c-11.06 13.07-6.44 11.56-25.12 10.89-3-.1-6 0-9 0Z"/><path class="cls-1" d="M528.34 1455.16c1.25 2.47 3.65 2.6 6 2.95a48.3 48.3 0 0 1-14.06 9.5c-3.34 1-4.39-.54-4-3.65 3.33-3.84 7.07-7.17 12.06-8.8Z"/><path class="cls-1" d="m516.22 1464 4 3.65a65.84 65.84 0 0 1-15.05 11.89 3.41 3.41 0 0 1-4.92-.72 51.8 51.8 0 0 1 15.97-14.82ZM489.16 1490.92c1.2-2.53 2.6-4.88 5.38-6q2.43-2.13 4.31.5a27.26 27.26 0 0 1-9.48 9.34q-2.11-1.76-.21-3.84Z"/><path class="cls-1" d="m498.85 1485.43-4.3-.5a12.53 12.53 0 0 1 5.72-6.15l4.92.72a14.93 14.93 0 0 1-6.34 5.93ZM486.25 1500.05a7.1 7.1 0 0 1-1.23 2.37c-.91.79-2.71 2-3.11 1.68-2.14-1.63-.74-2.9.88-3.95a2.26 2.26 0 0 1 3.46-.1ZM489.16 1490.92l.21 3.85a2.75 2.75 0 0 1-2.75 2.71l-.84-.72a6.1 6.1 0 0 1 3.38-5.84ZM543.15 1445.73c-1 2.67-3.1 3.59-5.81 3.41a6.2 6.2 0 0 1 5.81-3.41ZM537.32 1449.15a3.91 3.91 0 0 1-3.85 2.57 3.66 3.66 0 0 1 3.85-2.57ZM546.28 1451.48a3.31 3.31 0 0 1 3.54-2.13 3.13 3.13 0 0 1-3.54 2.13ZM531.33 1452.91a2.8 2.8 0 0 1-3 2.23c.42-1.53 1.3-2.43 3-2.23ZM540.28 1454.7a3.59 3.59 0 0 1 3.72-2.26 3.36 3.36 0 0 1-3.72 2.26ZM534.3 1458.11a4 4 0 0 1 4.07-2.49 3.88 3.88 0 0 1-4.07 2.49Z"/><path class="cls-1" d="m486.25 1500.05-3.45.1 3-3.39.83.72a9.67 9.67 0 0 1-.38 2.57Z"/></g></g></svg>